<svg xmlns="http://www.w3.org/2000/svg" width="24" height="24"><path d="M22 4v-.5a2.5 2.5 0 0 0-5 0V4a1 1 0 0 0-1 1v4a1 1 0 0 0 1 1h5a1 1 0 0 0 1-1V5a1 1 0 0 0-1-1zm-.8 0h-3.4v-.5a1.7 1.7 0 0 1 3.4 0V4zm-2.28 8a8.256 8.256 0 0 1 .08 1 7.957 7.957 0 0 1-2.1 5.39A1.984 1.984 0 0 0 15 17h-1v-3a1 1 0 0 0-1-1H7v-2h2a1 1 0 0 0 1-1V8h2a2.006 2.006 0 0 0 2-2V3.46A10 10 0 1 0 21 13c0-.34-.02-.67-.05-1zM10 20.93A7.988 7.988 0 0 1 3 13a8.118 8.118 0 0 1 .21-1.79L8 16v1a2.006 2.006 0 0 0 2 2z" fill="#031b4e" opacity=".2"/></svg>